<?xml version="1.0" standalone="no"?>
<!DOCTYPE svg PUBLIC "-//W3C//DTD SVG 20010904//EN"
 "http://www.w3.org/TR/2001/REC-SVG-20010904/DTD/svg10.dtd">
<svg version="1.0" xmlns="http://www.w3.org/2000/svg"
 width="300.000000pt" height="300.000000pt" viewBox="0 0 300.000000 300.000000"
 preserveAspectRatio="xMidYMid meet">
<metadata>
Created by potrace 1.10, written by Peter Selinger 2001-2011
</metadata>
<g transform="translate(0.000000,300.000000) scale(0.100000,-0.100000)"
fill="#000000" stroke="none">
<path d="M1630 2749 c0 -5 7 -9 15 -9 11 0 15 -11 15 -37 -1 -67 -28 -197 -44
-209 -13 -9 -7 -13 29 -21 25 -6 45 -6 45 -2 0 5 -4 9 -10 9 -14 0 -12 81 5
175 19 107 20 103 -20 103 -19 0 -35 -4 -35 -9z"/>
<path d="M1353 2662 c-32 -3 -47 -22 -18 -22 18 0 18 -8 2 -79 -14 -59 -17
-58 -58 18 -17 32 -21 45 -11 48 22 8 13 24 -10 18 -13 -3 -33 -7 -45 -8 -24
-1 -33 -17 -10 -17 7 0 35 -36 62 -80 28 -44 53 -80 57 -80 7 0 30 76 43 140
4 19 12 41 18 48 13 16 9 18 -30 14z"/>
<path d="M1463 2652 c-72 -57 -33 -173 59 -172 28 0 75 34 60 43 -5 4 -15 0
-22 -8 -30 -36 -87 -9 -96 46 l-6 36 66 -3 c59 -2 66 -1 66 17 0 51 -81 77
-127 41z m86 -15 c15 -19 4 -27 -41 -27 -36 0 -50 15 -31 33 11 12 60 7 72 -6z"/>
<path d="M1782 2614 c-20 -8 -38 -27 -49 -49 -17 -35 -17 -38 2 -73 27 -49 64
-67 110 -52 44 14 65 44 65 91 0 68 -65 110 -128 83z m76 -20 c26 -18 29 -61
7 -104 -20 -38 -59 -49 -86 -24 -40 36 -6 144 45 144 6 0 22 -7 34 -16z"/>
<path d="M1055 2568 c-22 -26 -26 -39 -21 -66 6 -37 37 -78 68 -88 26 -8 86
14 98 36 18 33 10 46 -11 18 -25 -34 -70 -37 -99 -8 -32 32 -24 48 31 67 28
10 54 24 56 31 9 22 -18 42 -57 42 -31 0 -44 -6 -65 -32z m83 -4 c-3 -17 -65
-48 -72 -36 -2 4 0 17 5 30 10 27 73 33 67 6z"/>
<path d="M1964 2559 c-3 -5 0 -9 5 -9 22 0 10 -39 -38 -121 -39 -68 -52 -84
-70 -82 -28 4 -27 -14 2 -23 12 -3 34 -15 50 -26 28 -20 39 -10 12 12 -13 10
-12 17 7 53 20 39 21 40 29 19 9 -23 45 -42 79 -42 10 0 32 12 49 26 27 22 31
32 31 74 0 41 -4 52 -27 70 -18 14 -35 19 -50 15 -16 -4 -21 -1 -18 8 6 15
-52 40 -61 26z m121 -73 c14 -21 14 -27 0 -63 -20 -50 -54 -71 -90 -55 -38 17
-32 73 13 125 22 24 59 21 77 -7z"/>
<path d="M816 2540 c-83 -40 -161 -102 -108 -86 22 7 34 -5 96 -98 47 -70 54
-90 36 -101 -5 -3 -10 -11 -10 -17 0 -6 10 -2 23 9 12 11 44 35 70 52 53 36
87 83 87 119 0 42 -38 101 -79 121 -44 23 -70 23 -115 1z m108 -40 c64 -57 69
-136 10 -175 -44 -28 -58 -20 -119 72 l-58 87 29 23 c42 34 94 31 138 -7z"/>
<path d="M2168 2395 c-37 -21 -61 -69 -53 -106 8 -35 49 -69 84 -69 25 1 25 1
-6 15 -38 16 -56 46 -47 79 12 50 30 51 81 8 42 -37 48 -39 60 -24 18 25 16
48 -9 76 -29 32 -74 41 -110 21z m102 -52 c0 -29 -18 -29 -52 2 -33 28 -34 32
-10 37 30 7 62 -13 62 -39z"/>
<path d="M2335 2278 c4 -18 -4 -31 -41 -61 -33 -26 -53 -35 -67 -31 -17 5 -15
1 9 -30 32 -40 45 -46 37 -18 -5 22 45 69 85 79 20 5 29 1 40 -15 16 -24 42
-30 42 -9 0 22 -22 37 -53 37 -25 0 -28 2 -17 15 11 13 9 19 -8 35 -27 26 -34
25 -27 -2z"/>
<path d="M580 2218 c-11 -12 -20 -32 -20 -45 0 -31 -5 -29 -57 13 -24 20 -45
35 -47 33 -1 -2 -10 -17 -19 -32 l-18 -28 26 7 c21 5 42 -6 126 -70 70 -54 99
-71 94 -57 -4 14 -2 21 7 21 21 0 57 37 64 65 20 82 -99 153 -156 93z m89 -22
c37 -20 53 -56 37 -87 -18 -37 -57 -36 -100 1 -72 64 -24 130 63 86z"/>
<path d="M461 2031 c-38 -52 -19 -110 43 -136 41 -17 82 -9 106 23 21 26 28
92 9 92 -6 0 -8 -9 -4 -20 4 -13 0 -31 -9 -45 -13 -20 -25 -25 -56 -25 -21 0
-41 4 -44 9 -3 5 5 33 18 62 14 29 23 56 20 61 -3 4 -18 8 -34 8 -20 0 -35 -9
-49 -29z m59 -6 c0 -12 -35 -75 -42 -75 -14 0 -21 50 -8 65 11 14 50 22 50 10z"/>
<path d="M2364 1985 c-8 -19 12 -36 33 -28 19 7 12 37 -10 41 -9 2 -20 -4 -23
-13z"/>
<path d="M300 1898 c0 -13 -3 -33 -6 -45 -4 -14 -2 -23 5 -23 6 0 11 7 11 15
0 23 14 19 102 -32 l82 -48 -74 -12 c-114 -18 -133 -17 -127 7 3 11 2 20 -2
20 -8 0 -31 -103 -24 -110 2 -3 9 3 14 13 14 25 28 22 113 -26 l76 -44 -56
-10 c-73 -13 -149 -11 -149 4 0 6 -3 15 -7 19 -5 4 -8 -6 -8 -22 0 -16 -4 -44
-9 -62 -11 -37 -6 -40 17 -12 12 14 43 23 112 35 118 18 154 25 158 30 2 1
-38 27 -89 56 -104 60 -105 57 33 79 43 7 75 16 73 21 -3 4 -53 36 -112 70
-58 35 -108 71 -111 81 -6 26 -22 22 -22 -4z"/>
<path d="M2679 1904 c-1 -5 -1 -12 -1 -16 2 -13 -26 -25 -120 -48 -97 -24 -98
-24 -114 -5 -15 19 -15 19 -10 -5 3 -14 9 -42 12 -62 7 -42 24 -52 24 -14 0
20 8 27 47 40 26 9 47 16 49 16 1 0 4 -9 7 -21 7 -27 -1 -49 -19 -49 -8 0 -14
-5 -14 -11 0 -7 8 -9 23 -4 12 4 34 9 50 12 31 6 37 23 7 23 -20 0 -45 34 -36
49 3 5 22 12 42 15 19 4 41 9 49 12 9 4 17 -11 25 -47 12 -50 12 -53 -11 -70
-26 -20 -15 -25 24 -10 l25 10 -24 92 c-23 89 -33 113 -35 93z"/>
<path d="M2627 1641 c-4 -15 -15 -18 -70 -20 -55 -1 -66 1 -70 16 -3 10 -5 -6
-6 -34 0 -30 3 -53 9 -53 6 0 10 6 10 14 0 26 65 35 114 16 20 -7 26 -16 26
-40 0 -20 5 -30 15 -30 23 0 19 48 -5 62 -24 15 -26 28 -5 28 17 0 18 4 9 38
-8 27 -20 29 -27 3z"/>
<path d="M2529 1479 c-46 -17 -65 -95 -33 -135 14 -18 15 -18 10 -1 -18 55
-17 66 3 86 24 24 94 30 86 9 -2 -7 -6 -37 -8 -65 -3 -58 8 -67 50 -38 79 56
-13 180 -108 144z m109 -51 c18 -18 14 -56 -7 -68 -25 -13 -32 -2 -24 43 6 39
12 44 31 25z"/>
<path d="M505 1400 c6 -9 -63 -110 -76 -110 -8 0 -61 41 -77 60 -10 12 -11 8
-6 -25 7 -42 24 -72 24 -42 0 22 5 21 48 -5 l36 -22 -39 -9 c-22 -5 -65 -14
-96 -20 l-55 -12 15 -35 c13 -31 15 -32 19 -13 4 25 6 26 130 52 83 16 95 17
108 4 20 -21 22 -15 11 36 -8 42 -9 42 -23 22 -15 -21 -64 -30 -64 -12 0 5 12
24 26 41 20 24 29 28 35 18 7 -10 9 -9 9 3 0 32 -13 79 -22 79 -5 0 -6 -4 -3
-10z"/>
<path d="M2468 1269 c-28 -27 -33 -53 -22 -96 10 -38 22 -26 17 15 -7 50 14
72 68 72 21 0 39 -1 39 -2 0 -2 -9 -31 -19 -65 -18 -58 -18 -63 -3 -64 51 -4
82 25 82 76 0 30 -35 83 -57 86 -60 9 -79 5 -105 -22z m137 -70 c0 -28 -4 -35
-23 -37 -20 -3 -22 0 -17 25 11 48 15 55 28 50 6 -2 12 -19 12 -38z"/>
<path d="M530 1192 c0 -4 9 -13 20 -20 26 -16 26 -63 0 -87 -10 -9 -39 -20
-64 -22 -37 -5 -46 -2 -55 14 -5 11 -9 32 -8 46 1 14 -2 27 -8 29 -5 2 -11
-11 -13 -28 -2 -22 5 -40 23 -63 22 -26 34 -31 68 -31 53 1 86 25 96 72 7 30
4 41 -16 67 -23 29 -43 40 -43 23z"/>
<path d="M2407 1116 c-10 -22 -15 -44 -13 -50 3 -7 5 -6 5 2 2 21 33 13 146
-37 l110 -50 12 27 c13 32 6 50 -11 27 -11 -15 -22 -12 -118 30 -82 37 -108
52 -110 69 -3 17 -7 14 -21 -18z"/>
<path d="M604 1041 c1 -13 -18 -33 -54 -58 -30 -21 -56 -45 -58 -54 -4 -23 41
-84 63 -84 30 0 24 30 -6 33 -33 4 -44 35 -19 57 17 15 21 14 64 -16 40 -29
49 -31 71 -21 44 20 22 92 -28 92 -14 0 -15 3 -5 19 9 15 9 23 -1 35 -18 21
-28 20 -27 -3z m40 -67 c9 -3 16 -17 16 -30 0 -29 -33 -33 -69 -7 -23 15 -23
17 -6 30 21 14 35 16 59 7z"/>
<path d="M2362 1028 c-7 -7 -12 -27 -12 -45 0 -26 -4 -33 -20 -33 -11 0 -20
-4 -20 -10 0 -5 -16 -27 -35 -49 -38 -42 -43 -54 -20 -45 17 7 74 -37 93 -72
9 -18 9 -29 0 -48 -16 -37 -46 -32 -96 14 -35 32 -42 44 -37 62 6 20 2 18 -29
-11 -40 -38 -44 -46 -20 -37 10 4 34 -10 67 -39 28 -25 62 -45 74 -45 27 0 63
44 63 78 0 20 3 23 12 14 8 -8 15 -9 25 -1 19 16 16 38 -4 33 -12 -3 -35 12
-65 41 -42 40 -46 48 -36 65 17 27 32 25 90 -10 26 -16 57 -30 68 -30 35 0 77
88 50 105 -18 11 -31 -5 -20 -25 15 -29 2 -52 -29 -48 -25 3 -26 5 -23 56 1
29 -2 61 -8 72 -12 22 -49 27 -68 8z m47 -32 c7 -8 11 -31 9 -51 l-3 -37 -27
22 c-37 28 -38 80 -3 80 7 0 18 -6 24 -14z"/>
<path d="M696 901 c-3 -5 4 -11 15 -14 30 -8 21 -28 -35 -76 -46 -40 -49 -41
-67 -25 -11 10 -22 14 -26 11 -4 -4 2 -14 13 -22 18 -14 18 -16 2 -29 -25 -18
-23 -21 17 -22 19 0 35 4 35 10 0 6 25 34 56 62 51 45 55 53 45 72 -14 26 -47
46 -55 33z"/>
<path d="M762 788 c-14 -14 -15 -51 -3 -95 7 -24 6 -35 -5 -44 -22 -18 -47 8
-39 40 6 25 6 25 -14 7 -19 -17 -19 -20 -4 -42 22 -35 60 -42 86 -16 20 20 20
25 8 73 -10 38 -10 54 -2 62 19 19 46 -6 46 -42 0 -36 2 -37 26 -15 18 17 16
23 -29 70 -16 17 -54 18 -70 2z"/>
<path d="M895 707 c4 -16 -13 -49 -69 -127 l-75 -104 31 -13 c39 -17 40 -16
26 6 -10 16 -2 32 53 110 65 92 86 106 115 77 8 -8 14 -17 14 -20 0 -3 -29
-55 -65 -117 -36 -62 -64 -113 -63 -114 2 -1 18 -7 36 -13 34 -12 42 -6 17 12
-13 9 -6 26 42 109 31 55 63 101 70 104 8 3 22 -1 31 -10 17 -17 16 -21 -23
-126 -9 -24 -14 -45 -13 -46 2 -2 17 -6 33 -10 21 -5 26 -4 16 3 -12 9 -13 17
-2 54 17 56 37 78 73 78 41 0 45 -23 19 -97 -13 -35 -22 -66 -20 -67 2 -2 15
-9 27 -15 28 -15 39 -9 18 8 -13 11 -12 21 9 77 20 54 22 68 12 85 -14 23 -47
34 -82 25 -20 -5 -25 -3 -25 13 0 11 -9 21 -22 25 -13 3 -60 30 -106 60 -70
47 -81 52 -77 33z"/>
<path d="M2066 698 c-13 -13 -27 -34 -31 -48 -6 -24 -6 -24 10 -5 53 68 63 69
111 21 24 -24 34 -43 34 -64 0 -34 -11 -45 -48 -46 -31 -1 -43 -26 -12 -26 32
0 58 17 76 51 45 88 -67 182 -140 117z"/>
<path d="M1923 614 c-18 -9 -33 -20 -33 -24 0 -5 -3 -15 -6 -24 -3 -9 -1 -16
5 -16 6 0 11 7 11 15 0 8 11 22 25 31 21 14 31 15 51 6 22 -10 54 -58 43 -65
-2 -1 -25 -12 -51 -25 -51 -23 -61 -45 -29 -62 64 -34 136 29 117 104 -15 62
-76 89 -133 60z m107 -112 c0 -37 -43 -55 -68 -30 -10 10 -5 16 20 30 42 22
48 22 48 0z"/>
<path d="M1803 568 c-37 -12 -42 -23 -14 -31 14 -3 21 -17 26 -50 10 -65 4
-81 -28 -85 -20 -3 -27 -8 -25 -20 5 -27 30 -20 54 15 20 29 22 31 27 13 5
-18 8 -19 31 -9 31 14 34 29 6 29 -11 0 -20 7 -20 15 0 8 -7 35 -16 61 -14 43
-14 47 3 60 22 16 4 17 -44 2z"/>
<path d="M1330 533 c0 -6 11 -15 25 -21 23 -11 24 -15 18 -59 -3 -26 -7 -50
-9 -52 -9 -10 -55 21 -63 41 -7 19 -10 14 -16 -30 -7 -55 -2 -79 10 -43 5 15
15 21 37 21 l30 0 -7 -52 c-4 -29 -9 -55 -11 -57 -2 -2 -24 0 -49 4 -40 5 -49
11 -60 38 -12 26 -14 28 -15 10 0 -12 -2 -28 -5 -36 -5 -10 11 -17 67 -26 40
-7 85 -14 101 -17 16 -3 27 -1 27 5 0 6 -7 11 -15 11 -19 0 -19 3 2 128 14 86
19 102 35 102 36 0 17 18 -24 23 -24 2 -51 8 -60 12 -10 4 -18 3 -18 -2z"/>
<path d="M1576 523 c-3 -4 -6 -15 -6 -25 0 -24 33 -21 38 3 3 17 -21 33 -32
22z"/>
</g>
</svg>
