<?xml version="1.0" standalone="no"?>
<!DOCTYPE svg PUBLIC "-//W3C//DTD SVG 20010904//EN"
 "http://www.w3.org/TR/2001/REC-SVG-20010904/DTD/svg10.dtd">
<svg version="1.0" xmlns="http://www.w3.org/2000/svg"
 width="500.000000pt" height="500.000000pt" viewBox="0 0 500.000000 500.000000"
 preserveAspectRatio="xMidYMid meet">

<g transform="translate(0.000000,500.000000) scale(0.100000,-0.100000)"
fill="#000000" stroke="none">
<path d="M2720 4581 c0 -5 10 -11 23 -13 17 -2 23 -10 25 -38 4 -46 -45 -350
-59 -367 -6 -7 -21 -13 -33 -13 -46 -1 10 -18 79 -25 l70 -6 -24 19 c-23 18
-24 24 -18 94 4 41 16 130 27 199 28 171 30 159 -35 159 -30 0 -55 -4 -55 -9z"/>
<path d="M2450 4427 c-94 -63 -98 -212 -7 -267 51 -32 167 -20 191 19 16 26
-7 30 -36 6 -70 -59 -158 -1 -158 105 l0 40 106 0 107 0 -7 33 c-3 17 -20 44
-36 60 -40 36 -111 38 -160 4z m103 -8 c27 -14 37 -28 37 -51 0 -16 -10 -18
-75 -18 l-76 0 16 31 c23 43 60 57 98 38z"/>
<path d="M2255 4433 c-45 -10 -51 -15 -27 -24 14 -5 22 -17 22 -31 -1 -27 -36
-187 -43 -194 -8 -8 -107 166 -107 187 0 10 7 19 15 19 8 0 15 5 15 11 0 6 -8
8 -17 5 -10 -2 -42 -8 -70 -11 -58 -8 -75 -20 -40 -29 13 -3 39 -28 59 -58 66
-99 108 -166 114 -182 5 -13 44 -24 44 -13 0 1 14 56 30 122 17 66 30 127 30
136 0 9 9 28 21 43 l20 26 -23 -1 c-13 -1 -32 -3 -43 -6z"/>
<path d="M2952 4352 c-103 -55 -104 -213 -2 -271 141 -79 296 71 218 211 -41
72 -141 99 -216 60z m147 -25 c29 -25 42 -75 30 -119 -22 -85 -55 -118 -116
-118 -38 0 -46 4 -63 33 -32 52 -20 137 28 190 33 37 86 43 121 14z"/>
<path d="M1815 4326 c-37 -16 -82 -68 -91 -102 -19 -76 30 -167 104 -193 36
-13 47 -13 88 0 54 17 116 81 97 100 -8 8 -16 3 -27 -20 -9 -17 -25 -35 -35
-41 -31 -16 -86 -12 -113 10 -26 20 -64 87 -55 97 3 2 45 19 94 37 56 21 89
39 91 50 2 9 -10 30 -26 46 -34 34 -75 39 -127 16z m75 -36 c26 -26 19 -37
-37 -61 -64 -27 -73 -25 -73 16 0 27 6 37 28 49 37 21 58 20 82 -4z"/>
<path d="M3280 4264 c0 -4 7 -15 16 -25 18 -20 14 -29 -71 -179 -26 -47 -54
-97 -62 -111 -19 -37 -40 -52 -63 -46 -39 10 -19 -10 46 -46 78 -43 97 -47 64
-12 l-23 25 23 50 c31 67 43 76 60 45 21 -40 59 -59 117 -59 105 0 171 92 149
209 -10 54 -76 99 -134 92 -32 -3 -41 -2 -33 6 17 17 13 27 -14 37 -44 17 -75
23 -75 14z m163 -86 c51 -27 60 -76 28 -151 -30 -70 -93 -107 -141 -82 -61 31
-64 86 -10 174 41 66 77 84 123 59z"/>
<path d="M1371 4239 c-46 -20 -207 -125 -217 -140 -3 -5 12 -7 32 -6 37 2 38
1 126 -128 112 -162 115 -171 87 -201 -12 -13 -20 -27 -17 -30 8 -8 205 126
240 163 83 87 74 224 -21 305 -70 60 -152 73 -230 37z m117 -33 c67 -35 141
-145 142 -209 0 -38 -22 -78 -65 -116 -30 -26 -44 -31 -73 -29 -33 3 -41 10
-111 114 -42 60 -84 121 -93 134 -27 37 -23 46 34 85 59 39 117 46 166 21z"/>
<path d="M3630 4003 c-56 -22 -110 -97 -110 -155 0 -46 40 -106 84 -127 45
-22 96 -28 96 -11 0 6 -11 10 -25 10 -58 0 -106 48 -105 103 1 29 31 88 51
100 13 8 26 2 58 -28 23 -22 58 -50 77 -64 l36 -25 19 24 c55 72 -26 182 -133
179 -18 0 -40 -3 -48 -6z m119 -38 c42 -21 52 -56 27 -90 -13 -18 -17 -17 -72
30 l-57 49 29 13 c38 16 40 16 73 -2z"/>
<path d="M3901 3799 c9 -18 5 -26 -38 -66 -84 -80 -123 -104 -145 -92 -35 19
-31 1 12 -50 46 -55 61 -63 53 -30 -12 45 134 150 189 136 14 -4 28 -18 35
-37 12 -32 33 -39 52 -16 26 32 -25 71 -91 70 l-39 -1 20 21 c29 30 26 41 -13
65 -42 26 -50 26 -35 0z"/>
<path d="M1015 3725 c-22 -8 -41 -15 -41 -15 -10 -1 -39 -64 -44 -94 l-5 -38
-83 62 c-46 34 -85 60 -86 58 -10 -14 -45 -93 -42 -96 2 -2 13 2 24 9 28 18
47 8 194 -103 67 -51 136 -101 152 -112 l29 -18 -7 26 c-5 19 -2 26 7 26 31 0
96 59 108 99 36 122 -87 239 -206 196z m80 -56 c90 -47 122 -130 70 -179 -36
-34 -74 -30 -138 14 -80 55 -99 114 -52 161 30 31 67 32 120 4z"/>
<path d="M813 3425 c-38 -16 -73 -78 -73 -130 0 -145 207 -211 285 -92 20 31
30 87 21 121 -11 43 -24 29 -19 -19 5 -39 2 -47 -25 -75 -34 -33 -81 -40 -141
-19 -37 13 -36 20 15 118 34 64 40 86 27 94 -24 13 -62 14 -90 2z m45 -47 c11
-15 -34 -128 -51 -128 -18 0 -36 34 -37 68 0 53 60 94 88 60z"/>
<path d="M3950 3315 c-20 -25 -8 -50 25 -50 21 0 31 5 33 18 4 21 -14 47 -33
47 -7 0 -18 -7 -25 -15z"/>
<path d="M501 3143 c-6 -31 -11 -62 -11 -70 0 -20 17 -15 23 7 8 30 31 25 121
-27 44 -25 107 -61 140 -78 l58 -32 -33 -6 c-19 -4 -92 -14 -162 -22 -137 -17
-164 -12 -152 26 4 11 2 19 -4 19 -6 0 -11 -2 -11 -4 0 -2 -7 -39 -15 -82 -15
-81 -13 -99 8 -71 6 9 23 20 37 25 21 8 44 -1 154 -64 74 -42 123 -75 115 -78
-8 -3 -61 -12 -119 -20 -181 -26 -210 -24 -210 15 0 10 -4 19 -9 19 -10 0 -17
-30 -27 -118 l-7 -63 29 29 c22 22 45 32 94 40 220 39 344 63 349 68 8 8 -15
23 -138 94 -178 103 -179 92 10 124 90 15 165 29 168 32 9 9 -22 30 -197 134
-154 92 -177 109 -180 133 -5 44 -18 31 -31 -30z"/>
<path d="M4460 3156 c0 -34 -13 -41 -130 -71 -246 -64 -231 -61 -246 -41 -7
10 -15 24 -17 30 -2 6 -7 8 -11 5 -6 -6 25 -140 41 -179 4 -9 9 1 12 24 6 37
9 41 56 57 28 9 67 20 88 24 l37 7 0 -45 c0 -38 -4 -49 -27 -65 -16 -11 -25
-23 -22 -26 8 -8 159 35 159 45 0 5 -10 9 -23 9 -44 0 -97 83 -60 94 79 23
156 37 163 30 5 -5 16 -37 24 -71 18 -69 11 -104 -24 -123 -37 -20 -21 -28 27
-14 25 8 48 16 50 17 3 3 -15 74 -69 280 -12 41 -28 50 -28 13z"/>
<path d="M4394 2751 c3 -4 0 -16 -7 -25 -10 -13 -35 -18 -120 -23 -105 -6
-108 -5 -114 15 -11 42 -26 23 -19 -24 3 -26 6 -60 6 -75 0 -34 17 -39 22 -7
4 29 54 42 132 35 82 -7 112 -31 108 -86 -4 -38 -2 -41 22 -41 23 0 26 4 26
34 0 28 -8 41 -42 70 l-42 36 37 0 c20 0 37 1 37 3 0 17 -34 97 -42 97 -5 0
-7 -4 -4 -9z"/>
<path d="M4227 2468 c-71 -19 -114 -112 -88 -191 12 -35 37 -65 46 -55 3 3 -5
23 -17 44 -25 48 -20 84 19 120 21 19 37 24 82 24 l57 0 -7 -72 c-13 -122 -11
-138 10 -138 73 0 117 55 109 137 -10 104 -101 161 -211 131z m172 -94 c12
-15 21 -36 21 -48 0 -33 -28 -66 -56 -66 -22 0 -24 3 -24 54 0 90 20 110 59
60z"/>
<path d="M850 2331 c0 -10 -13 -36 -30 -57 -82 -108 -96 -124 -106 -124 -18 0
-124 91 -124 106 0 8 -4 14 -10 14 -13 0 -12 -13 5 -83 16 -67 25 -83 25 -44
0 36 15 34 78 -10 38 -26 50 -39 40 -44 -8 -4 -75 -20 -150 -35 l-136 -27 19
-49 c10 -27 19 -51 19 -54 0 -3 4 -3 9 0 5 3 7 14 4 24 -2 10 2 23 9 29 25 20
357 86 384 76 7 -2 16 -13 19 -24 4 -11 10 -17 14 -15 9 6 -21 156 -31 156 -4
0 -8 -9 -8 -19 0 -11 -10 -27 -22 -35 -24 -17 -83 -22 -92 -8 -3 4 16 34 41
66 43 54 48 57 60 40 22 -30 25 -10 8 65 -16 70 -25 89 -25 52z"/>
<path d="M4143 2144 c-57 -29 -89 -127 -61 -189 12 -28 35 -35 23 -7 -16 36
-16 71 -1 100 21 41 44 52 103 52 78 0 80 -4 45 -113 -16 -53 -27 -99 -24
-102 3 -3 24 -5 47 -5 128 0 144 206 21 264 -43 20 -111 20 -153 0z m196 -100
c25 -32 26 -46 6 -84 -12 -23 -22 -30 -45 -30 -33 0 -34 4 -19 70 18 82 24 87
58 44z"/>
<path d="M880 1994 c0 -4 16 -21 35 -38 50 -44 55 -84 16 -128 -38 -43 -132
-76 -177 -61 -41 13 -59 54 -44 99 14 40 3 61 -26 50 -13 -5 -16 -16 -12 -56
6 -60 40 -114 87 -136 93 -45 231 33 231 131 0 39 -28 97 -58 122 -26 22 -52
30 -52 17z"/>
<path d="M4012 1856 c-36 -78 -40 -96 -14 -73 31 29 28 30 295 -87 71 -31 132
-56 136 -56 8 0 32 92 25 99 -2 2 -12 -3 -22 -12 -26 -24 -38 -22 -143 24
-235 103 -237 104 -241 141 -3 32 -4 31 -36 -36z"/>
<path d="M1000 1764 c0 -3 7 -12 15 -21 14 -14 14 -17 -2 -35 -10 -11 -48 -38
-84 -59 -36 -22 -76 -51 -89 -64 -22 -23 -22 -28 -11 -67 12 -40 77 -118 98
-118 21 0 44 26 37 43 -4 12 -17 17 -43 17 -44 0 -61 14 -61 51 0 19 9 34 28
48 l28 19 69 -44 c100 -65 165 -55 165 24 0 38 -50 92 -86 92 -24 0 -24 1 -10
22 21 30 20 41 -9 72 -22 24 -45 34 -45 20z m96 -159 c15 -23 15 -27 -1 -51
-14 -23 -22 -25 -52 -21 -19 3 -51 18 -70 33 l-35 26 29 18 c15 10 47 19 70
19 35 1 46 -4 59 -24z"/>
<path d="M3943 1716 c-24 -21 -28 -32 -28 -78 0 -53 0 -54 -28 -50 -23 4 -29
-1 -41 -29 -8 -19 -37 -59 -65 -91 -55 -60 -62 -75 -32 -58 11 5 24 10 30 10
18 0 128 -109 141 -140 15 -37 0 -83 -36 -106 -20 -14 -26 -14 -53 0 -16 9
-57 41 -91 73 -56 51 -61 60 -56 87 6 30 6 30 -44 -19 -27 -27 -50 -53 -50
-57 0 -4 12 -5 28 -3 22 5 39 -5 102 -61 93 -82 112 -90 153 -67 42 25 68 63
74 112 6 40 6 41 25 24 19 -17 20 -16 38 7 19 25 32 60 23 60 -2 0 -13 -4 -23
-10 -20 -11 -44 4 -123 79 -61 58 -71 76 -54 93 7 7 16 21 20 31 10 26 26 21
116 -33 99 -60 123 -67 156 -46 34 22 77 100 73 132 -4 33 -32 54 -50 36 -9
-9 -8 -19 4 -45 13 -28 14 -39 4 -58 -15 -31 -64 -37 -94 -12 -19 17 -20 22
-11 73 14 73 6 130 -21 152 -30 24 -54 23 -87 -6z m64 -44 c21 -13 33 -61 26
-107 l-6 -44 -28 14 c-32 17 -69 65 -69 91 0 38 46 66 77 46z"/>
<path d="M1157 1503 c-4 -4 6 -12 23 -19 52 -22 41 -50 -57 -133 l-86 -74 -27
33 c-19 23 -29 29 -35 21 -4 -8 3 -24 20 -41 l26 -27 -27 -22 c-15 -12 -25
-23 -23 -25 2 -2 30 -6 62 -9 55 -5 57 -5 51 17 -4 19 8 33 75 87 112 90 123
125 55 178 -28 22 -46 26 -57 14z"/>
<path d="M1272 1307 c-26 -28 -28 -69 -7 -146 16 -62 7 -91 -29 -91 -38 0 -58
32 -50 76 7 36 6 38 -10 25 -37 -31 -37 -46 0 -90 44 -50 90 -56 129 -16 29
28 32 67 10 139 -18 60 -12 84 22 92 21 6 31 1 50 -20 26 -31 27 -37 13 -85
l-10 -35 35 34 c37 36 45 53 20 44 -10 -4 -15 0 -15 11 0 9 -15 32 -34 51 -42
42 -91 46 -124 11z"/>
<path d="M1480 1205 c0 -3 5 -14 12 -24 14 -24 6 -44 -46 -116 -81 -111 -186
-260 -186 -266 0 -9 88 -48 94 -42 3 4 -1 14 -9 23 -19 21 -11 43 45 120 23
30 48 66 58 80 9 14 36 51 60 83 40 53 48 58 73 53 37 -7 37 8 2 31 -16 9 -41
27 -56 40 -27 22 -47 29 -47 18z"/>
<path d="M3509 1199 c-44 -11 -87 -50 -104 -91 -18 -45 -18 -48 -6 -48 5 0 13
9 16 20 4 11 18 34 32 50 56 67 158 15 203 -104 21 -56 -17 -101 -84 -101 -34
0 -41 -3 -41 -20 0 -48 106 -13 144 48 35 57 37 90 7 149 -38 78 -103 115
-167 97z"/>
<path d="M1635 1090 c22 -24 24 -19 -90 -219 -52 -92 -97 -174 -100 -183 -5
-13 4 -19 42 -31 56 -16 62 -14 40 11 -10 10 -17 23 -17 28 0 8 57 112 144
264 21 36 42 68 48 71 13 8 48 -1 48 -12 0 -5 6 -9 14 -9 22 0 27 -28 12 -68
-8 -20 -28 -75 -45 -121 -18 -46 -28 -87 -24 -91 12 -11 76 -31 81 -26 2 3 -2
12 -11 20 -16 17 -9 53 26 137 31 75 119 106 153 53 16 -24 16 -29 -19 -132
-21 -59 -37 -112 -37 -117 0 -12 81 -47 89 -39 3 3 -2 11 -12 18 -24 18 -22
39 14 130 39 101 40 132 6 162 -37 31 -85 39 -130 21 l-35 -15 5 33 c5 31 3
34 -28 43 -19 5 -65 28 -104 51 -76 45 -98 51 -70 21z"/>
<path d="M3240 1040 c-40 -10 -100 -70 -100 -100 0 -12 5 -18 10 -15 6 3 10
12 10 20 0 20 63 65 91 65 51 0 133 -80 113 -111 -3 -6 -44 -29 -90 -51 -46
-22 -84 -43 -84 -48 0 -4 13 -22 29 -39 38 -40 90 -42 144 -6 71 49 90 136 46
215 -35 61 -97 87 -169 70z m150 -187 c0 -39 -13 -62 -45 -79 -31 -17 -35 -17
-59 -1 -38 26 -32 42 27 70 62 31 77 33 77 10z"/>
<path d="M3011 944 c-54 -17 -75 -34 -42 -34 25 0 46 -40 62 -124 9 -42 8 -59
-4 -88 -13 -32 -20 -37 -54 -40 -30 -2 -38 -7 -38 -23 0 -14 8 -21 27 -23 31
-4 78 38 78 69 0 31 17 30 30 -1 12 -29 12 -29 44 -13 56 28 63 37 30 43 -31
5 -36 16 -77 158 -15 51 -15 53 5 72 21 19 21 20 2 19 -10 -1 -39 -7 -63 -15z"/>
<path d="M2222 879 c3 -8 14 -15 26 -17 38 -6 45 -26 37 -108 -8 -86 -18 -96
-71 -70 -25 11 -36 25 -40 46 -4 16 -10 30 -13 30 -12 0 -30 -154 -20 -165 6
-5 9 -3 9 6 0 28 34 49 78 49 23 0 42 -1 42 -3 0 -2 -5 -30 -10 -63 -6 -32
-13 -74 -16 -92 -5 -30 -8 -33 -32 -28 -15 3 -46 8 -69 11 -50 8 -93 44 -93
80 0 14 -4 25 -10 25 -5 0 -10 -25 -10 -55 0 -53 0 -54 33 -60 222 -37 280
-45 286 -39 3 4 0 9 -7 11 -28 11 -44 36 -38 65 3 16 15 93 26 171 12 77 26
147 32 154 6 7 21 13 34 13 54 0 19 17 -58 29 -46 7 -91 15 -102 18 -12 3 -17
1 -14 -8z"/>
<path d="M2615 849 c-10 -30 18 -58 43 -43 9 6 17 22 17 35 0 34 -50 41 -60 8z"/>
</g>
</svg>
